<?xml version="1.0" encoding="UTF-8" standalone="no"?>
<svg
   id="Layer_2"
   data-name="Layer 2"
   viewBox="0 0 557.60798 249.26"
   width="557.60797"
   height="249.25999"
   xmlns="http://www.w3.org/2000/svg"
   xmlns:svg="http://www.w3.org/2000/svg">
  <defs
     id="defs1">
    <style
       id="style1">
      .cls-1 {
        fill: #012e2c;
      }

      .cls-2 {
        fill: none;
      }
    </style>
  </defs>
  <rect width="100%" height="100%" rx="40" fill="white"/>
  <g
     id="Layer_1-2"
     data-name="Layer 1"
     transform="translate(9.9978918,8.9899973)">
    <g
       id="g7">
      <path
         class="cls-1"
         d="m 168.74,141.66 c -1.16,-16.75 -2.59,-37.32 -2.45,-49.55 h -0.49 c -4.33,12.15 -9.28,25.13 -16.2,41.75 l -25.25,60.78 h -5.93 L 94.73,135.22 C 87.86,117.81 82.77,104.41 79.16,92.1 h -0.45 c -0.31,13.14 -1.16,32.59 -2.59,51.12 l -3.79,51.41 H 63.99 L 72.78,82.85 h 9.73 l 25.88,64.43 c 5.67,14.22 9.9,25.46 13.3,36.24 h 0.4 c 3.08,-10.32 7.36,-21.15 13.52,-36.11 l 26.81,-64.56 h 10.17 l 8.08,111.78 h -8.39 l -3.52,-52.99 z"
         id="path1" />
      <path
         class="cls-1"
         d="m 254.17,194.65 -1.25,-11.4 h -0.4 c -4.15,6.14 -13.7,13.23 -27.3,13.23 -17.22,0 -25.21,-11.28 -25.21,-21.89 0,-18.37 17.4,-29.44 52.25,-29.11 v -2.11 c 0,-7.88 -1.65,-23.59 -21.91,-23.47 -7.5,0 -15.3,1.87 -21.51,5.93 l -2.68,-5.72 c 7.81,-4.93 17.36,-6.88 25.12,-6.88 24.72,0 29.45,17.25 29.45,31.47 v 31.06 c 0,6.3 0.27,12.81 1.25,18.91 h -7.81 z m -1.92,-42.54 c -18.65,-0.5 -43.28,2.11 -43.28,21.23 0,11.44 8.12,16.58 17.04,16.58 14.28,0 22.4,-8.21 25.34,-15.96 0.62,-1.7 0.89,-3.4 0.89,-4.77 v -17.08 z"
         id="path2" />
      <path
         class="cls-1"
         d="m 357.45,115.04 c -0.45,5.93 -0.71,12.23 -0.71,20.57 v 47.43 c 0,20.4 -4.51,30.52 -11.73,36.86 -7.81,6.92 -19.32,9.41 -29,9.41 -9.68,0 -20.7,-2.32 -27.22,-6.84 l 3.03,-6.34 c 5.93,3.61 14.37,6.63 25.48,6.63 17.98,0 30.96,-8.67 30.96,-32.26 v -11.24 h -0.36 c -4.46,8.09 -14.5,15.38 -29.8,15.38 -21.51,0 -36.72,-17.46 -36.72,-39.06 0,-27.82 19.59,-42.37 38.59,-42.37 16.82,0 25.3,8.58 28.78,15.26 h 0.36 l 0.49,-13.43 z m -9.19,30.6 c 0,-2.86 -0.27,-5.35 -1.07,-7.67 -3.52,-9.62 -12.58,-18.2 -26.64,-18.2 -18.11,0 -30.61,13.85 -30.61,34.91 0,17.91 10.13,33.42 30.38,33.42 11.42,0 22.08,-6.59 26.41,-18.04 0.98,-2.61 1.52,-5.6 1.52,-8.42 v -16 z"
         id="path3" />
      <path
         class="cls-1"
         d="m 385.69,84.15 c 6.96,-1.2 15.57,-2.16 25.7,-2.16 14.37,0 25.16,3.44 31.81,9.45 5.8,5.22 9.24,12.56 9.24,21.89 0,9.33 -2.9,16.79 -8.34,22.35 -7.67,8.21 -20.61,12.48 -35.34,12.48 -5.4,0 -10.31,-0.12 -14.59,-1.33 v 47.81 h -8.48 V 84.14 Z m 8.48,55.77 c 4.19,1.2 9.46,1.62 15.26,1.62 21.55,0 34.44,-9.7 34.44,-27.41 0,-17.71 -13.7,-25.5 -32.79,-25.5 -7.76,0 -13.7,0.71 -16.91,1.33 z"
         id="path4" />
      <path
         class="cls-1"
         d="m 471.98,115.04 22.44,52.04 c 2.37,5.64 4.73,12.07 6.29,17.17 h 0.36 c 1.74,-4.93 3.97,-11.15 6.51,-17.66 l 20.97,-51.54 h 9.06 l -25.7,59.42 c -10.35,24.71 -17.62,39.47 -28.82,48.51 -6.78,5.39 -12.98,7.67 -14.99,8.29 l -2.72,-6.59 c 4.24,-1.49 9.9,-4.27 14.95,-8.87 4.28,-3.9 9.99,-10.53 14.32,-20.03 0.71,-1.7 1.03,-2.65 1.03,-3.44 0,-0.75 -0.27,-1.87 -1.03,-3.48 l -31.72,-73.8 h 9.06 z"
         id="path5" />
      <path
         class="cls-2"
         d="m 82.29,50.32 c -2.86,-3.65 -2.83,-8.64 -2.42,-13.05 0.05,-0.55 0.11,-1.1 0.16,-1.65 0.18,-1.75 0.36,-3.5 0.36,-5.23 0,-2.35 -0.18,-4.97 -1.62,-6.65 -1.97,-2.29 -4.81,-2.77 -6.84,-2.77 -1.43,0 -2.96,0.24 -4.42,0.69 -0.36,0.12 -0.71,0.25 -1.06,0.39 -1.03,0.46 -2,1.02 -2.87,1.67 -3.59,3.2 -7.06,6.51 -10.32,9.84 -1.43,1.46 -2.86,2.98 -4.27,4.51 0.15,-0.11 0.28,-0.19 0.38,-0.25 0.11,-0.07 0.22,-0.12 0.26,-0.14 0.04,-0.02 0.06,-0.03 0.22,-0.11 0.11,-0.06 0.19,-0.09 0.19,-0.09 0.08,-0.04 3.59,-1.76 7.06,-2.4 0.62,-0.11 1.35,-0.22 1.35,-0.22 0.81,-0.12 1.4,-0.19 1.73,-0.23 0.7,-0.08 1.71,-0.21 3.02,-0.43 l 0.55,-0.11 c 2.06,-0.4 4.19,-0.82 5.91,-1.95 2.1,-1.37 3.19,-3.44 3.74,-4.94 0.22,-0.6 0.74,-0.96 1.39,-0.96 0.51,0 0.98,0.23 1.23,0.59 0.15,0.22 0.3,0.6 0.1,1.13 -0.51,1.37 -1.14,2.58 -1.89,3.62 -0.01,0.02 -0.02,0.03 -0.03,0.05 -2.77,3.85 -5.47,7.04 -8.26,9.73 -2.67,2.58 -5.59,4.99 -8.41,7.32 l -0.61,0.5 c -3.28,2.71 -6.55,5.44 -9.82,8.17 2.02,5.01 6.05,9.05 11.13,11.12 l 1.8,0.63 c 2.42,0.69 4.89,1.04 7.33,1.04 4.78,0 9.4,-1.36 13.36,-3.95 2.24,-1.46 4.53,-3.35 7.22,-5.94 1.11,-1.07 2.15,-2.23 3.16,-3.36 l 1.11,-1.24 c 0.07,-0.08 0.15,-0.16 0.22,-0.25 -3.91,-0.12 -7.77,-2.04 -10.15,-5.07 z"
         id="path6" />
      <path
         class="cls-1"
         d="m 115.15,12.65 c -3.18,-3.02 -7.37,-4.68 -11.81,-4.68 -2.6,0 -5.24,0.58 -7.65,1.69 -1.07,0.49 -3.29,1.51 -5.12,1.51 -1.32,0 -2.26,-0.53 -2.78,-1.56 -0.85,-1.7 -0.5,-3.17 0.97,-4.03 0.68,-0.4 1.39,-0.61 2.02,-0.61 0.44,0 0.83,0.1 1.17,0.31 0.12,0.09 0.23,0.18 0.35,0.27 0.28,0.22 0.61,0.34 0.94,0.34 0.61,0 1.21,-0.4 1.43,-0.95 C 94.86,4.46 94.73,3.95 94.3,3.55 94,3.26 93.66,3.02 93.3,2.82 90.62,1.01 87.41,0.01 84.26,0.01 c -3.73,0 -7.23,1.38 -9.86,3.9 -2.74,2.62 -3.88,6.26 -4.99,9.77 -0.84,2.67 -2.78,4.44 -5.06,6.26 -0.88,0.44 -1.69,0.94 -2.42,1.51 -0.03,0.02 -0.06,0.05 -0.09,0.08 -0.07,0.04 -0.13,0.09 -0.19,0.14 -3.72,3.31 -7.32,6.75 -10.69,10.21 -1.79,1.83 -3.57,3.73 -5.29,5.63 -1.68,1.86 -3.02,3.77 -4.57,6.06 -7.93,6.51 -14.44,15.17 -19.09,25.5 -0.01,0.03 -0.02,0.05 -0.04,0.08 0,0.02 -0.02,0.05 -0.03,0.08 -0.03,0.09 -0.13,0.32 -0.17,0.53 -0.03,0.11 -0.07,0.3 -0.06,0.55 0,0.17 0.02,0.42 0.17,0.69 0.05,0.09 0.17,0.27 0.39,0.41 0.21,0.14 0.41,0.17 0.5,0.19 0.14,0.02 0.26,0.03 0.31,0.03 0.07,0 0.13,0 0.24,-0.01 0.09,0 0.14,-0.01 0.2,-0.02 0.09,-0.01 0.15,-0.03 0.2,-0.04 0.09,-0.02 0.15,-0.05 0.19,-0.06 0.02,0 0.04,-0.01 0.05,-0.02 4.56,-1.51 8.64,-3.35 12.1,-5.48 1.04,-0.64 2.06,-1.35 3.04,-2.09 0.02,0 0.03,0 0.05,0 0.08,0 0.16,0 0.25,0 0.02,0 0.04,0 0.06,0 0.09,0 0.19,0 0.29,0.01 0.13,0 0.4,0.04 0.4,0.04 l 0.18,0.03 c 0.36,0.06 0.71,0.15 1.05,0.26 l 0.29,0.1 0.12,0.06 c 0.13,0.06 0.26,0.13 0.38,0.2 0.11,0.06 0.21,0.13 0.32,0.2 0.06,0.04 0.13,0.08 0.19,0.12 l 0.09,0.08 c 0.08,0.07 0.16,0.14 0.23,0.22 0.06,0.06 0.11,0.12 0.17,0.18 0.03,0.03 0.06,0.06 0.09,0.1 l 0.11,0.17 c 0.06,0.1 0.13,0.19 0.18,0.29 0.02,0.03 0.03,0.06 0.04,0.09 C 32.35,82.73 21.14,99.4 9.94,116.09 l -9.71,14.5 c -0.27,0.41 -0.3,0.86 -0.09,1.27 0.26,0.49 0.85,0.84 1.43,0.84 0.09,0 0.17,0 0.26,-0.02 5.77,-1.04 10.5,-3.17 14.04,-6.33 1.23,-1.1 2.25,-2.43 3.15,-3.62 1.95,-2.56 3.87,-5.19 5.66,-7.66 1.96,-2.71 3.92,-5.43 5.87,-8.14 l 0.34,-0.47 c 4.62,-6.43 9.4,-13.08 14.25,-19.52 4.03,-5.36 7.96,-10.62 11.66,-15.95 0.7,0.27 1.41,0.53 2.12,0.74 0.2,0.06 0.39,0.12 0.59,0.18 0.05,0.01 0.1,0.03 0.15,0.04 2.03,0.56 4.1,0.9 6.17,1.02 4.32,3.17 7.16,8.53 8,15.1 0.08,0.65 0.5,1.42 1.42,1.42 0.39,0 0.83,-0.21 1.11,-0.53 0.23,-0.27 0.34,-0.58 0.3,-0.88 -0.17,-1.31 -0.39,-2.55 -0.66,-3.73 0.28,-0.07 0.58,-0.14 0.93,-0.21 l 0.13,-0.02 c 0.13,-0.01 0.27,-0.02 0.4,-0.03 0.14,0 0.27,-0.01 0.41,-0.01 0.11,0 0.23,0 0.34,0 0.12,0 0.35,0.02 0.35,0.02 l 0.16,0.03 c 0.25,0.05 0.49,0.1 0.73,0.17 0.09,0.03 0.37,0.13 0.37,0.13 l 0.12,0.06 c 0.24,0.12 0.46,0.25 0.68,0.4 0.18,0.12 0.43,0.18 0.68,0.2 0.75,0.04 1.58,-0.69 1.54,-1.26 0,-0.07 -0.05,-0.21 -0.15,-0.48 -0.15,-0.42 -0.25,-0.55 -0.28,-0.59 -0.14,-0.17 -0.29,-0.27 -0.37,-0.31 -1.95,-1.18 -4.18,-1.19 -4.18,-1.19 -0.87,0 -1.77,0.13 -2.63,0.38 -0.29,-0.87 -0.61,-1.72 -0.98,-2.53 -1.02,-2.28 -2.48,-4.37 -4.26,-6.18 2.72,-0.25 5.34,-0.9 7.81,-1.95 6.56,-2.78 11.83,-8.23 16.25,-13.12 4.27,-4.72 6.74,-11.51 6.6,-18.16 -0.05,-2.2 -0.56,-4.52 -1.56,-7.08 -0.23,-0.59 -0.48,-1.16 -0.73,-1.73 -1.06,-2.42 -2.06,-4.71 -0.99,-7.55 0.72,-1.91 1.79,-2.67 3.52,-3.4 1.67,-0.71 3.43,-1.21 4.99,-1.65 2.93,-0.83 6.03,-1.78 8.98,-3.36 0.37,-0.2 0.62,-0.58 0.68,-1.03 0.06,-0.46 -0.09,-0.9 -0.39,-1.2 z m -22.93,42.98 -1.11,1.24 c -1.01,1.13 -2.05,2.29 -3.16,3.36 -2.69,2.59 -4.98,4.48 -7.22,5.94 -3.96,2.58 -8.58,3.95 -13.36,3.95 -2.44,0 -4.9,-0.35 -7.33,-1.04 l -1.8,-0.63 c -5.09,-2.07 -9.11,-6.11 -11.13,-11.12 3.27,-2.73 6.54,-5.45 9.82,-8.17 l 0.61,-0.5 c 2.82,-2.33 5.74,-4.74 8.41,-7.32 2.79,-2.69 5.49,-5.88 8.26,-9.73 0.01,-0.02 0.02,-0.03 0.03,-0.05 0.75,-1.04 1.39,-2.25 1.89,-3.62 0.19,-0.53 0.05,-0.9 -0.1,-1.13 -0.25,-0.36 -0.73,-0.59 -1.23,-0.59 -0.65,0 -1.17,0.36 -1.39,0.96 -0.55,1.49 -1.65,3.56 -3.74,4.94 -1.72,1.13 -3.85,1.54 -5.91,1.95 l -0.55,0.11 c -1.31,0.22 -2.32,0.35 -3.02,0.43 -0.33,0.04 -0.92,0.1 -1.73,0.23 0,0 -0.74,0.11 -1.35,0.22 -3.47,0.64 -6.99,2.36 -7.06,2.4 0,0 -0.08,0.04 -0.19,0.09 -0.16,0.08 -0.18,0.09 -0.22,0.11 -0.04,0.02 -0.14,0.08 -0.26,0.14 -0.1,0.06 -0.23,0.14 -0.38,0.25 1.41,-1.53 2.84,-3.04 4.27,-4.51 3.26,-3.33 6.73,-6.64 10.32,-9.84 0.88,-0.65 1.84,-1.22 2.87,-1.67 0.35,-0.14 0.7,-0.27 1.06,-0.39 1.46,-0.45 2.99,-0.69 4.42,-0.69 2.03,0 4.87,0.48 6.84,2.77 1.45,1.68 1.63,4.3 1.62,6.65 0,1.73 -0.19,3.48 -0.36,5.23 -0.06,0.55 -0.11,1.1 -0.16,1.65 -0.41,4.41 -0.44,9.4 2.42,13.05 2.38,3.04 6.24,4.95 10.15,5.07 -0.07,0.08 -0.15,0.17 -0.22,0.25 z"
         id="path7" />
    </g>
  </g>
</svg>
